<?xml version="1.0" standalone="no"?>
<!DOCTYPE svg PUBLIC "-//W3C//DTD SVG 20010904//EN"
 "http://www.w3.org/TR/2001/REC-SVG-20010904/DTD/svg10.dtd">
<svg version="1.0" xmlns="http://www.w3.org/2000/svg"
 width="128.000000pt" height="128.000000pt" viewBox="0 0 128.000000 128.000000"
 preserveAspectRatio="xMidYMid meet">
<metadata>
Created by potrace 1.16, written by Peter Selinger 2001-2019
</metadata>
<g transform="translate(0.000000,128.000000) scale(0.100000,-0.100000)"
fill="#000000" stroke="none">
<path d="M0 640 l0 -640 640 0 640 0 0 640 0 640 -640 0 -640 0 0 -640z m769
575 c201 -48 373 -218 426 -422 19 -74 19 -213 0 -288 -55 -208 -222 -372
-433 -421 -87 -21 -233 -14 -315 15 -140 49 -268 163 -331 293 -44 92 -58 152
-59 253 -1 161 54 299 167 410 149 148 348 206 545 160z"/>
<path d="M726 1001 c-4 -6 47 -40 207 -138 l37 -23 0 -189 c0 -139 -3 -191
-12 -199 -27 -21 -312 -182 -324 -182 -12 0 -256 137 -306 172 l-28 19 0 195
0 194 48 30 c26 16 42 30 35 30 -6 0 -14 -4 -17 -9 -6 -9 -64 -25 -83 -22 -22
3 -28 -50 -28 -253 l0 -200 170 -99 c94 -54 179 -103 191 -108 17 -9 50 7 204
96 102 59 188 112 192 118 5 7 7 106 6 220 -2 172 -5 210 -18 221 -8 8 -62 40
-119 71 -98 55 -145 72 -155 56z"/>
<path d="M502 892 c-14 -9 -53 -137 -44 -146 3 -3 84 -6 180 -6 l175 0 -6 45
c-4 24 -13 60 -21 80 l-15 35 -128 0 c-70 0 -134 -4 -141 -8z"/>
<path d="M540 715 c0 -3 7 -22 15 -42 8 -19 15 -57 15 -84 l0 -49 65 0 65 0 0
50 c0 28 7 67 15 87 8 19 15 37 15 39 0 2 -43 4 -95 4 -52 0 -95 -2 -95 -5z"/>
<path d="M401 651 c-24 -21 -42 -43 -40 -48 2 -5 31 -57 63 -116 56 -102 61
-107 92 -107 24 0 39 8 58 31 34 41 33 58 -9 99 -30 29 -35 41 -35 78 0 35 -6
49 -29 73 -16 16 -35 29 -43 29 -7 -1 -33 -18 -57 -39z"/>
<path d="M773 664 c-28 -22 -33 -32 -33 -70 0 -38 -6 -51 -41 -89 -44 -48 -44
-58 4 -103 17 -16 34 -22 53 -20 25 3 37 17 91 113 35 61 63 113 63 116 0 7
-90 79 -99 79 -3 0 -21 -12 -38 -26z"/>
</g>
</svg>
